<svg xmlns="http://www.w3.org/2000/svg" viewBox="0 0 407.45 445.2"><defs><style>.cls-1{fill:#00a99d;}.cls-2{fill:#666;}.cls-3{fill:#187a72;}.cls-4{fill:#4d4d4d;}</style></defs><g id="Layer_2" data-name="Layer 2"><g id="Layer_1-2" data-name="Layer 1"><circle class="cls-1" cx="192.38" cy="29.51" r="11.98"/><rect class="cls-2" y="61.74" width="41" height="62.23" rx="1.49"/><rect class="cls-2" x="340.3" y="61.12" width="41" height="62.23" rx="1.49"/><path class="cls-1" d="M407.45,445.2a314,314,0,0,1-30.81-83.62c-16.75-79.09,11.44-102.11-9.89-160.72S308.28,140.25,300,83c-6.44-44.52,11.35-75.64,3.3-79.13-9.8-4.25-50.67,35.56-52.75,83.25-1.91,43.57,30.59,47.85,41.21,111.27,2.06,12.32,8.61,54.29-7.42,100.55-8,23.11-14.05,25.37-19,42.86-6.23,22.22-6.82,55.48,18.92,103.4"/><path class="cls-3" d="M279.47,65.69c-2.61-.07-8.29,22.67-5,46.15,4.13,29.1,19.54,41.38,30.5,61,25.15,45-5.73,70.32,3.29,159.89,5.24,52,20.51,91.86,22.26,91.49s-12.15-39.1-11.54-92.31c1-83.37,36.33-103.17,18.13-145.06-13.62-31.37-39.76-34.79-51.1-77.48C279.89,86.15,281.93,65.75,279.47,65.69Z"/><rect class="cls-4" x="55.22" y="189.7" width="270.76" height="171.85" rx="6.36"/><rect class="cls-2" x="175.67" y="153.22" width="29.85" height="36.47"/><rect class="cls-4" x="28.33" y="30.21" width="324.54" height="123.63" rx="3.88"/><rect class="cls-2" x="28.33" y="361.54" width="147.74" height="72.94" rx="3.72"/><rect class="cls-2" x="208.84" y="361.54" width="147.74" height="72.94" rx="3.72"/><circle class="cls-1" cx="90.84" cy="92.03" r="24.49"/><path class="cls-1" d="M169.44,445.2A315.05,315.05,0,0,1,136.69,358c-16.75-79.09,11.44-102.11-9.89-160.72S68.33,136.69,60,79.44C53.6,34.92,71.39,3.8,63.34.31c-9.8-4.25-50.67,35.56-52.75,83.25-1.9,43.57,30.59,47.85,41.21,111.27,2.06,12.32,8.61,54.29-7.42,100.55-8,23.11-14.05,25.37-19,42.86C19,361,18.57,395.36,46.29,445.2"/><path class="cls-3" d="M39.52,62.13c-2.61-.07-8.28,22.67-5,46.15,4.13,29.1,19.54,41.38,30.5,61,25.15,45-5.73,70.32,3.29,159.89,5.24,52,20.51,91.86,22.26,91.49s-12.15-39.1-11.54-92.31C80,245,115.41,225.18,97.21,183.29c-13.62-31.37-39.76-34.79-51.1-77.48C39.94,82.6,42,62.19,39.52,62.13Z"/><circle class="cls-1" cx="289.58" cy="92.03" r="24.49"/></g></g></svg>